<svg width="512" height="512" viewBox="0 0 512 512" fill="none" xmlns="http://www.w3.org/2000/svg" role="img" aria-labelledby="title desc">
  <title id="title">E-reader Logo</title>
  <desc id="desc">A minimalist e-ink reader style icon combining a document page and open book.</desc>

  <!-- Warm paper background -->
  <rect width="512" height="512" rx="108" fill="#F7F1E4"/>

  <!-- E-ink device frame -->
  <rect x="78" y="78" width="356" height="356" rx="54" stroke="#252525" stroke-width="36"/>

  <!-- Document sheet -->
  <path d="M154 118H338C349.046 118 358 126.954 358 138V311H154V138C154 126.954 162.954 118 174 118Z" fill="#F7F1E4"/>
  <path d="M358 171V311" stroke="#252525" stroke-width="18" stroke-linecap="round"/>

  <!-- Folded page corner -->
  <path d="M315 118V158C315 169.046 323.954 178 335 178H375L315 118Z" fill="#252525"/>

  <!-- Reading lines -->
  <path d="M176 213H336" stroke="#252525" stroke-width="14" stroke-linecap="round"/>
  <path d="M176 248H336" stroke="#252525" stroke-width="14" stroke-linecap="round"/>
  <path d="M176 283H336" stroke="#252525" stroke-width="14" stroke-linecap="round"/>
  <path d="M216 318H296" stroke="#252525" stroke-width="14" stroke-linecap="round"/>

  <!-- Open book base -->
  <path d="M94 329C94 318.507 103.995 310.888 114.132 313.594C171.266 328.849 219.277 352.599 256 389C292.723 352.599 340.734 328.849 397.868 313.594C408.005 310.888 418 318.507 418 329V377C418 385.837 410.837 393 402 393H328C294.863 393 271.65 405.526 256 429C240.35 405.526 217.137 393 184 393H110C101.163 393 94 385.837 94 377V329Z" fill="#F7F1E4"/>

  <!-- Book curves -->
  <path d="M102 320C169 333 221 357 256 394" stroke="#252525" stroke-width="18" stroke-linecap="round"/>
  <path d="M410 320C343 333 291 357 256 394" stroke="#252525" stroke-width="18" stroke-linecap="round"/>
  <path d="M256 394V430" stroke="#252525" stroke-width="18" stroke-linecap="round"/>

  <!-- Lower book edge -->
  <path d="M102 384H184C217 384 240 397 256 424C272 397 295 384 328 384H410" stroke="#252525" stroke-width="18" stroke-linecap="round" stroke-linejoin="round"/>
</svg>
